
<global>
amp_veltrack=0.0
ampeg_release=0.45
xfin_hicc1=24
xfout_hicc1=127
xfout_locc1=127
</global>

<group>
group_label=Flatter_0-45
lpc_hicc1=42
lpc_locc1=0

<region>
hikey=a#4
hivel=127
lokey=a4
loop_end=269996
loop_mode=loop_continuous
loop_start=102390
loop_xfade=20309
lovel=1
lpc=dXe+QdFTKcJcPaxBn4DkwNu56D9oa91Api7KvjkwVcCW9E1AKYnawGw2gECYmTTAZORwQAAl+r99x+s/nEM5v3xvwjvtlB4/xecaP8XhBsCRv5M/+JPmv/gnoD6K1uE/
lpc_rms=-26.25
offset=7307
pitch_keycenter=a#4
sample=Flute_tremolo_PP_A#4.opus
</region>

<region>
hikey=a#5
hivel=127
lokey=a5
loop_end=271503
loop_mode=loop_continuous
loop_start=102962
loop_xfade=20422
lovel=1
lpc=WiEmQSh5ScF7DWlA8dzPvtqnGT83Rp0/TbTcPZ2sJb51cxq/lsq3vlKYaL52dXM/Mid4P8oIMD325Pu+mltcv2lV2r5lMYc/9tSAP+ilir4ZnCM89du+va3OH7/RtYS/
lpc_rms=-27.07
offset=1222
pitch_keycenter=a#5
sample=Flute_tremolo_PP_A#5.opus
</region>

<region>
hikey=a#6
hivel=127
lokey=a6
loop_end=275373
loop_mode=loop_continuous
loop_start=104429
loop_xfade=20713
lovel=1
lpc=xt/eQdbqnMFxIps+A/uWQAG3xT8ZAKtA05LVv7GYtEAhD5NALmBMv/Rne0DkDtE/z1CHwHWpHMHHSUBBbc2aQMu0G8CML90+Vd5/PwIF8L4CZFm/y7VXvfaP1z98t2i+
lpc_rms=-10.72
offset=6896
pitch_keycenter=A#6
sample=Flute_tremolo_PP_A#6.opus
</region>

<region>
hikey=c5
hivel=127
lokey=b4
loop_end=279726
loop_mode=loop_continuous
loop_start=106080
loop_xfade=21041
lovel=1
lpc=Mrs4QbQflsFC+/pAlGcGwKeKAEAhTfM+pT5DP8H/Zr6SnR2/Y+6gv8uTtD9V8Hy/5PkDQF9W8L/IP6s/ociqv7VLbz/4W9g+tG1IvlZ57r408MA9hdLPvrFQtb21coA/
lpc_rms=-33.35
offset=5253
pitch_keycenter=c5
sample=Flute_tremolo_PP_C5.opus
</region>

<region>
hikey=c6
hivel=127
lokey=b5
loop_end=271781
loop_mode=loop_continuous
loop_start=103067
loop_xfade=20443
lovel=1
lpc=0HcrQTwB3cCZ6zM+TZyUP7yoBr/Pxy5Atv9cPmG3l7+/4JM/kMKIvzcg4z/ItYg+7SqDP+UanL0sARy/Xw4aP/fQgz6KV8E/MQtHPw+bpb7l3lS+IhfFv4L967/u44s+
lpc_rms=-30.04
offset=2225
pitch_keycenter=c6
sample=Flute_tremolo_PP_C6.opus
</region>

<region>
hivel=127
key=d4
loop_end=278037
loop_mode=loop_continuous
loop_start=105440
loop_xfade=20914
lovel=1
lpc=NaFYQjAJ+8KhFc9CR4UUwhsHcz9l1jdAMg0cQfhPZMFvYAtBaITewJ0v1EBGocDAe6EfQeOrOsEfNSVBnDgBwVSZ4D/7T09AQ3UBwMzsNT+n6X4+ZbqwPyGVy8BzspJA
lpc_rms=-26.65
offset=484
sample=Flute_tremolo_PP_D4.opus
</region>

<region>
hikey=d5
hivel=127
lokey=c#5
loop_end=274955
loop_mode=loop_continuous
loop_start=104271
loop_xfade=20682
lovel=1
lpc=2MqrQUTSBMLvaClBrO/CvinaOr/pTxhB6B32vyIiwb9cAJu+lna8wDsUXkDDJIM/53FkQPS7icAJg+s/V0pBwP8wB0B8J74/LaclQBAVw7/330q/c58FwGf50r+63YpA
lpc_rms=-25.34
offset=719
pitch_keycenter=d5
sample=Flute_tremolo_PP_D5.opus
</region>

<region>
hikey=d6
hivel=127
lokey=c#6
loop_end=274198
loop_mode=loop_continuous
loop_start=103984
loop_xfade=20625
lovel=1
lpc=YSmRQYrlGMFlJsi/raMlQEsy27/+xRRAL+glQGc1Zb8VDiJAbcrivUO9GUA/98w9CDpOQH8GDb//SANAvZ44P+FRqz+rthFAW09uPp4qRcD7qHHA7jFiv9iXUECyzz1A
lpc_rms=-23.37
offset=899
pitch_keycenter=d6
sample=Flute_tremolo_PP_D6.opus
</region>

<region>
hikey=e4
hivel=127
lokey=d#4
loop_end=263917
loop_mode=loop_continuous
loop_start=100085
loop_xfade=19852
lovel=1
lpc=BBAzQkxKusJaZ4VC6pS7wdCfMUBiMbJA2TQSwdV9X0EU7jTBAlKJPyIoU0ADhoU/TtKCQCtMacGSAWNB1/0AwUibn0CFgUm9a5uJwAoDrUDXE7nALtdhQERme8DkuVtA
lpc_rms=-25.00
offset=4259
pitch_keycenter=e4
sample=Flute_tremolo_PP_E4.opus
</region>

<region>
hikey=e5
hivel=127
lokey=d#5
loop_end=272092
loop_mode=loop_continuous
loop_start=103185
loop_xfade=20466
lovel=1
lpc=ogR8Qa43msFtBuw/6C4DQJF6rr966XxApPBjQELsYMA7VNs/jct7wO2CdD8JTkg/sqHPP4eal7/KQIc/pI8tvwb2nj+BCwY/xkkOP8en67346L2/SJa2vwFZ9z8G9bg/
lpc_rms=-26.77
offset=1633
pitch_keycenter=e5
sample=Flute_tremolo_PP_E5.opus
</region>

<region>
hikey=e6
hivel=127
lokey=d#6
loop_end=272717
loop_mode=loop_continuous
loop_start=103422
loop_xfade=20513
lovel=1
lpc=1naGQW74B8ECkRHBn/gFQEsRGEAgXjxAItp3PLyt+L6OLuY/kKiqPWkv5z7+C4i/vFCqP248uL5AoQk9jQ3FP53tgr/Dn6HA6JhvwKg8vj+GYLlAW6MtQLaaEsAll2rA
lpc_rms=-24.83
offset=14006
pitch_keycenter=e6
sample=Flute_tremolo_PP_E6.opus
</region>

<region>
hikey=f#4
hivel=127
lokey=f4
loop_end=270246
loop_mode=loop_continuous
loop_start=102485
loop_xfade=20328
lovel=1
lpc=9N2kQT2HMcJ2owdCupx+wRQ8+EBWF2TAT1uyQONejMBtaKk/o63lvw2hTT/TusE/ugQ6v3wqir+g8xNASg2RwBKSmkAHMyPAWiubP5AjVz4iWR2/Sbo1v7NXnD53ufc+
lpc_rms=-28.74
offset=5796
pitch_keycenter=f#4
sample=Flute_tremolo_PP_F#4.opus
</region>

<region>
hikey=f#5
hivel=127
lokey=f5
loop_end=269576
loop_mode=loop_continuous
loop_start=102231
loop_xfade=20277
lovel=1
lpc=Chq+QWLAA8J+NBZBrdf3vyGD7L7uNwdBrQP5v1yM2z6kA0C/NQGiwEZ1u0CmTB7AV/92QMIAHMCQRcQ+nkMRwIvA1D+V4eu9FMniP2bIfb+qwIw/098Dvp2DNkDRa1HA
lpc_rms=-25.32
offset=15587
pitch_keycenter=f#5
sample=Flute_tremolo_PP_F#5.opus
</region>

<region>
hikey=f#6
hivel=127
lokey=f6
loop_end=279481
loop_mode=loop_continuous
loop_start=105988
loop_xfade=21022
lovel=1
lpc=x0ipQZQ6IsHjp+HAEIYNwG4XZD/6Z41ApiOGQMsyg79Y2cc/uEEHP6DN6z+NPuQ/fBE/PwfGbr56uf69l8SgwFBihMALEyFA/9uZQL/wlUBjdHg+bmyxv4ydasDddse9
lpc_rms=-21.04
offset=4873
pitch_keycenter=f#6
sample=Flute_tremolo_PP_F#6.opus
</region>

<region>
hikey=g#4
hivel=127
lokey=g4
loop_end=271230
loop_mode=loop_continuous
loop_start=102858
loop_xfade=20402
lovel=1
lpc=V8HcQahIZMLmfSBCtLF8wUD9gUApc9g/W0rzQNmuPcGhFudAqdvWwHQnlUA1R5a/M8diQE1swMCQUohAk3QTwBmDrL8VbmxAtG3MvvsT5L99H+w/ASrOvJccWMCm6DFA
lpc_rms=-27.39
offset=5268
pitch_keycenter=g#4
sample=Flute_tremolo_PP_G#4.opus
</region>

<region>
hikey=g#5
hivel=127
lokey=g5
loop_end=264972
loop_mode=loop_continuous
loop_start=100485
loop_xfade=19931
lovel=1
lpc=mfyrQaycwMH7bLo/Af9IQHpDJcBrqdBAKI8IQOHZGcCtGXM/Kta/wG65dECgAcC/SWSoQH7aKMANYk1AoL0dwL6wDb+sMc8+NTmgv0RtEUBdLYY/fyjKPsklUEDKZKXA
lpc_rms=-24.39
offset=3899
pitch_keycenter=g#5
sample=Flute_tremolo_PP_G#5.opus
</region>

<region>
hikey=g#6
hivel=127
lokey=g6
loop_end=281353
loop_mode=loop_continuous
loop_start=106697
loop_xfade=21163
lovel=1
lpc=xW+IQbBBDMGJFaXAkFkXQHq3Lr/3M3FAQh3LP2mRF74UtVFAfRYRv1cGMEDt+Sg8txkzQNr8JMCQdrvA7Vi8Paj5jkC2mn9ABgq3vgOwtr+iFl+/gJmXPrfNPD8mlgrA
lpc_rms=-21.76
offset=4281
pitch_keycenter=g#6
sample=Flute_tremolo_PP_G#6.opus
</region>
</group>

<group>
group_label=Flatter_46-90
lpc_hicc1=84
lpc_locc1=43

<region>
hikey=a#4
hivel=127
lokey=a4
loop_end=266093
loop_mode=loop_continuous
loop_start=100910
loop_xfade=20015
lovel=1
lpc=DfSnQUDaPMJfbvlBOuWDwAnoiEC9pzTA+oqbvxXSksAGTrVAZOV0wKrflEDoY5DALUdcQNTpA8C0MYFA/k+hwJ/X2j9rkZO/XRDXP3+M/b3OOq4/oEWnv1jU37/FCew/
lpc_rms=-20.04
offset=4449
pitch_keycenter=a#4
sample=Flute_tremolo_MF_A#4.opus
</region>

<region>
hikey=a#5
hivel=127
lokey=a5
loop_end=274576
loop_mode=loop_continuous
loop_start=104127
loop_xfade=20653
lovel=1
lpc=+KuiQSE7zcFnazJBIc+IP6u6+79vWm5Ab9eCv5q2Or9JfNA/B0iqvIQvOD+5f5I/6DqevWcSjr8NlFBAhk+ov5Tnhj+omcQ+C48qvhvTdj+ong1AtuIiwB3In0ANE7/A
lpc_rms=-17.44
offset=3608
pitch_keycenter=a#5
sample=Flute_tremolo_MF_A#5.opus
</region>

<region>
hikey=a#6
hivel=127
lokey=a6
loop_end=275373
loop_mode=loop_continuous
loop_start=104429
loop_xfade=20713
lovel=1
lpc=xt/eQdbqnMFxIps+A/uWQAG3xT8ZAKtA05LVv7GYtEAhD5NALmBMv/Rne0DkDtE/z1CHwHWpHMHHSUBBbc2aQMu0G8CML90+Vd5/PwIF8L4CZFm/y7VXvfaP1z98t2i+
lpc_rms=-10.72
offset=6896
pitch_keycenter=A#6
sample=Flute_tremolo_MF_A#6.opus
</region>

<region>
hikey=c5
hivel=127
lokey=b4
loop_end=268655
loop_mode=loop_continuous
loop_start=101882
loop_xfade=20208
lovel=1
lpc=08SJQXSFEMKNtMZBtdLXwO/iwz+bnIdAd720wIVc4D7EDz8/7M/Kvwj2aEBard2/lcGgP5KxE78zyf08zwnsvznMpj8f64o/Jf8+v41x574k15U/Q49Cv+yE9L+FcxhA
lpc_rms=-21.16
offset=5246
pitch_keycenter=c5
sample=Flute_tremolo_MF_C5.opus
</region>

<region>
hikey=c6
hivel=127
lokey=b5
loop_end=268988
loop_mode=loop_continuous
loop_start=102008
loop_xfade=20233
lovel=1
lpc=6JLiQV/C/sGCpkBBNGsYQFqJs8B9ythAKdm2v3D0ar9zfDtAQYovv+odU0CgfnPAMv1EQL3UbT/58JM/B210v7+dDT5r4B5AwMOGP86wAMBGFJdApdd1vzt+g8ETXyVB
lpc_rms=-14.90
offset=1454
pitch_keycenter=c6
sample=Flute_tremolo_MF_C6.opus
</region>

<region>
hivel=127
key=d4
loop_end=257719
loop_mode=loop_continuous
loop_start=97735
loop_xfade=19385
lovel=1
lpc=O9PSQW4ab8J4pT1CqJWLwS0uDkBhoQhAschrQHGj88Bc5IZA/J2iwNjB10BE9WPAc+dBQAEXWMCp3VJAJ8vLwEeV9UCqg2fANo7QP5mk/r92ABBAmwCsvzjJ8b+uXOg/
lpc_rms=-25.63
offset=5997
sample=Flute_tremolo_MF_D4.opus
</region>

<region>
hikey=d5
hivel=127
lokey=c#5
loop_end=281917
loop_mode=loop_continuous
loop_start=106911
loop_xfade=21205
lovel=1
lpc=1V1SQTf23cGcFYpBhhCWv9Yqz76Y6zdAc113wCm1br8LcwxAP9QLwHyEQEB+AvC/Q4ZUQH3IacCXLwQ/aEdBPwynd76nXdk8A8uPPxxI5L8lVAVADYQlv0M9/L8Il+Y/
lpc_rms=-21.20
offset=14198
pitch_keycenter=d5
sample=Flute_tremolo_MF_D5.opus
</region>

<region>
hikey=d6
hivel=127
lokey=c#6
loop_end=274843
loop_mode=loop_continuous
loop_start=104228
loop_xfade=20673
lovel=1
lpc=wPgjQdWnCcHpvOc/oXVtP3rlt79IXkNAW5KIv3UdIz9kJq0/MpUuv/hVxT+7HVC/+JkLQFewTb/eP60/lIQfvhpdFT/oWlQ/QQCJP6GXDsCsakrADFWJPyAlO0BulQK/
lpc_rms=-23.05
offset=816
pitch_keycenter=d6
sample=Flute_tremolo_MF_D6.opus
</region>

<region>
hikey=e4
hivel=127
lokey=d#4
loop_end=266777
loop_mode=loop_continuous
loop_start=101170
loop_xfade=20067
lovel=1
lpc=vUfAQXHzW8KwCitCcjJjwRKNXb9g4RFBOZKcwKOV9r+4Mfc/wZxWwAvVpEDOH6bAhErJQIyHyMAdP7VAUyXAwIocc0DxgNm+eYSLP+5QCMBd0gdAzUACwBhvAb8IXKw/
lpc_rms=-22.95
offset=2162
pitch_keycenter=e4
sample=Flute_tremolo_MF_E4.opus
</region>

<region>
hikey=e5
hivel=127
lokey=d#5
loop_end=272968
loop_mode=loop_continuous
loop_start=103517
loop_xfade=20532
lovel=1
lpc=TiW6QcnGFcI0goxBMm7lvyC86r9iz/1AvyBhwP5vZ78PxqE/KzvgvsxAxz+wcxvAWPoyQBjXCsD+dJ0/Ep9rv7TRE0A5k8A/JRPvP7GJSsASKji/rz+ZvxlJ0T6BzX1A
lpc_rms=-17.23
offset=7518
pitch_keycenter=e5
sample=Flute_tremolo_MF_E5.opus
</region>

<region>
hikey=e6
hivel=127
lokey=d#6
loop_end=274736
loop_mode=loop_continuous
loop_start=104188
loop_xfade=20665
lovel=1
lpc=QeT4QQIe5MEJILFAVPC2P4jYeMDUEyVBGrxOwBqNUEBW7tQ/aFWmv4BxoUCEPqu/K588QPfcbr8NYzVAlyE5P5QNa0CHPAPBgZNHwR4LRUEAbapAYdB4v1+7Pj9cxVfA
lpc_rms=-13.56
offset=6896
pitch_keycenter=e6
sample=Flute_tremolo_MF_E6.opus
</region>

<region>
hikey=f#4
hivel=127
lokey=f4
loop_end=270334
loop_mode=loop_continuous
loop_start=102519
loop_xfade=20334
lovel=1
lpc=GQavQXQBQ8JFXRFCXjRiwadY1ED8olNA+aaewPVCyr4AuiC+fO7Jv3CfM0DTdOm/17ZZQICHS8CsWghAc04RwBHbDT9G9rM/qMrvvqY0R7904Bk//Y0MP1vpn7/8Lkk/
lpc_rms=-22.00
offset=6236
pitch_keycenter=f#4
sample=Flute_tremolo_MF_F#4.opus
</region>

<region>
hikey=f#5
hivel=127
lokey=f5
loop_end=280035
loop_mode=loop_continuous
loop_start=106197
loop_xfade=21064
lovel=1
lpc=JIqaQbFs+sHFElNBP9iFQNd/rb/OHu0/lPPfv5a10r8qWX5AWI5XwIXJUEDIXwTAdAuiQD9rMMAlQq4/mAZ2wFAP1z9h32RA/nrBP8WF07+OeU+/r6IYwHvChUAHxVY/
lpc_rms=-17.00
offset=3078
pitch_keycenter=f#5
sample=Flute_tremolo_MF_F#5.opus
</region>

<region>
hikey=f#6
hivel=127
lokey=f6
loop_end=287994
loop_mode=loop_continuous
loop_start=109216
loop_xfade=21663
lovel=1
lpc=QhSwQQM4pcFLa40/tw2AQG3ll7+xb3BAQU5uv1aiA0BZLTBAbzMWwBgHHEDRrC+/pGMLQDfxtL9MIIlAN24JwVEN0cD6TgdBEZCaQDr6TMCjwyG/1uAgv42cqb6qtI2/
lpc_rms=-13.88
offset=9404
pitch_keycenter=f#6
sample=Flute_tremolo_MF_F#6.opus
</region>

<region>
hikey=g#4
hivel=127
lokey=g4
loop_end=285901
loop_mode=loop_continuous
loop_start=108422
loop_xfade=21505
lovel=1
lpc=HBzmQayahMJezEdC8w6BwZWDtECF5RtArFImwB03W8DBtUNAHxCywOvT/kAo85zA/qqnQD6QscBWYQxAP0vHvx6qlz+l/J0/U02oPptJAsAy4M4/qYu0vktqTcAmMzhA
lpc_rms=-18.23
offset=18248
pitch_keycenter=g#4
sample=Flute_tremolo_MF_G#4.opus
</region>

<region>
hikey=g#5
hivel=127
lokey=g5
loop_end=279766
loop_mode=loop_continuous
loop_start=106096
loop_xfade=21044
lovel=1
lpc=WRenQRnz3cHsA1dBfd/HPe8J6z6QiGlANsc6v8D2lr9SclhAL68iwFFDjUB6tB++isdHQFzmBsCx0429aA8kQB6gzj/Jx+I/AfCMv9vNEj+IeyA++xY+QDA4rD8tm2s/
lpc_rms=-18.29
offset=4036
pitch_keycenter=g#5
sample=Flute_tremolo_MF_G#5.opus
</region>

<region>
hikey=g#6
hivel=127
lokey=g6
loop_end=282431
loop_mode=loop_continuous
loop_start=107106
loop_xfade=21244
lovel=1
lpc=/ySPQUhqLsGj8nu/6j5LQK6RIcBQlLVA/qMfQIQxOr/WUZBAXTAgwLooBEBjkqs/3S09QIhHd8DNpqvA22miv2pOuUDpphZAK3jsv+9sI7+5Eay/L2r+vw2zrz9mQNG9
lpc_rms=-16.71
offset=4879
pitch_keycenter=g#6
sample=Flute_tremolo_MF_G#6.opus
</region>
</group>

<group>
group_label=Flatter_91-127
lpc_hicc1=127
lpc_locc1=85

<region>
hikey=a#4
hivel=127
lokey=a4
loop_end=273441
loop_mode=loop_continuous
loop_start=103697
loop_xfade=20568
lovel=1
lpc=LtKyQVjFSMJk6QpCZLaowLyKQry/arJAiDgcwbyxPz9g07o/6TZKvr1xrkCoRZLANKkiQHjSgsAZSypAbssgvy5muz90MLe/zbyHP/xjGcD4fhBAvVzSP32SpcD3vEFA
lpc_rms=-13.15
offset=4108
pitch_keycenter=a#4
sample=Flute_tremolo_FF_A#4.opus
</region>

<region>
hikey=a#5
hivel=127
lokey=a5
loop_end=278368
loop_mode=loop_continuous
loop_start=105565
loop_xfade=20939
lovel=1
lpc=UzCKQZdlpsGkqBxBg9RNP1EjgsAThrxALHSov5G0477fCipAAZiOwPU7qEDBqny/sPEWvcyMuz+OcUQ/G13evm98wL6rN5U/kR/YPshVCkDHz9K+YdGav3mRkUBJQK/A
lpc_rms=-14.70
offset=1825
pitch_keycenter=a#5
sample=Flute_tremolo_FF_A#5.opus
</region>

<region>
hikey=a#6
hivel=127
lokey=a6
loop_end=263848
loop_mode=loop_continuous
loop_start=100059
loop_xfade=19846
lovel=1
lpc=Km4EQlw60sEhvIhAqtygQKNhyr7QGOFAcqpjPosfa0AYWBVAoSRCwEc040D60vI+4M4ZwVGjMcEy441BhQMJQIUbkcBVWso/Xaqcv2dY2L+NwBNAoH/GPmtJsz8tDEw/
lpc_rms=-9.95
offset=3182
pitch_keycenter=A#6
sample=Flute_tremolo_FF_A#6.opus
</region>

<region>
hikey=c5
hivel=127
lokey=b4
loop_end=277062
loop_mode=loop_continuous
loop_start=105070
loop_xfade=20840
lovel=1
lpc=D9wpQZO4vMG6LYZBZi/Lv5Du4L8uCDY/JjeNv1VckD71M9A/V6FlwOR57T9QYyNAJj+Ivx/wAcC1qC++mV40QC9TJ8CDWYw/NxiAvm0urT/pnHG/Ap31vELc/L6gWRM/
lpc_rms=-21.07
offset=9410
pitch_keycenter=c5
sample=Flute_tremolo_FF_C5.opus
</region>

<region>
hikey=c6
hivel=127
lokey=b5
loop_end=279999
loop_mode=loop_continuous
loop_start=106184
loop_xfade=21061
lovel=1
lpc=qxZ3QZ6HjcG0QOtAIruVP9I28r+lGXFAH+q1vz7Wyj8TwDY/f8kKvhBBH0Cujoe/Fj3wPy72Gz7FSnI/2aYyP/nxKD8zNRQ/SkWXPwVXhD7e8/s/dWMfv1PDAMH5+9BA
lpc_rms=-17.30
offset=1433
pitch_keycenter=c6
sample=Flute_tremolo_FF_C6.opus
</region>

<region>
hivel=127
key=d4
loop_end=275034
loop_mode=loop_continuous
loop_start=104301
loop_xfade=20688
lovel=1
lpc=UOBeQapw4MEukZlBbhyvwGM5N8AZ8+BAEVZxwHgl0bwFsVA/o5wVwNW+HECfSBLABKZcQJikNcAg7fA/3gOWvzyU8r50vfU/38VGv354IL9FLas/8cCav/xiQT6dslk9
lpc_rms=-27.97
offset=1968
sample=Flute_tremolo_FF_D4.opus
</region>

<region>
hikey=d5
hivel=127
lokey=c#5
loop_end=276623
loop_mode=loop_continuous
loop_start=104903
loop_xfade=20807
lovel=1
lpc=/p8TQbrHjMFKuBxBhWoVP+XXtb/i624/ljqlv4BqVj9LQxO/dSQOPwA4iT8P+zK/g39mvfmYLcD/+Y1A9XGMv5pYSb8j+jy/s82CP4+FZD7P2Dc/2t01v22H478J9e4/
lpc_rms=-20.41
offset=1668
pitch_keycenter=d5
sample=Flute_tremolo_FF_D5.opus
</region>

<region>
hikey=d6
hivel=127
lokey=c#6
loop_end=278647
loop_mode=loop_continuous
loop_start=105671
loop_xfade=20960
lovel=1
lpc=W5kzQmAzR8IsM4NBQnDYQH4Mwb9fXgdBB3ecwAjVoUD3PZFA/Vxsvq6S9b+wEuRAcpRLQHQZP8B2MtRANgG1v/PoVkBAh2pAzFnOPt3GiMDoO5TB/zaGQZKmFkHSqyTB
lpc_rms=-8.92
offset=5926
pitch_keycenter=d6
sample=Flute_tremolo_FF_D6.opus
</region>

<region>
hikey=e4
hivel=127
lokey=d#4
loop_end=270303
loop_mode=loop_continuous
loop_start=102507
loop_xfade=20332
lovel=1
lpc=UZ2gQRUtMcLrqAZC8eVvwSNMCUEIrIm/dSHJv3olLL8QYB4/RAYGv0ozHj/EBrO/H0hEQLbgWMDZuBdAfI7GvwkW3j/sOXC/0ZrHPzRPWMCX3y9ARD6Zv1WLqj4iMBQ9
lpc_rms=-22.60
offset=619
pitch_keycenter=e4
sample=Flute_tremolo_FF_E4.opus
</region>

<region>
hikey=e5
hivel=127
lokey=d#5
loop_end=273374
loop_mode=loop_continuous
loop_start=103671
loop_xfade=20563
lovel=1
lpc=SVIuQdvPksFErApBgq0Zv+T1hD/FbMY/KqWwv/voR741IAu/9XnKPT0Uyz/WIWU+7tkCwOMiPj+uTsM/tZh1vzdO/j6+n6k9ZkOoPTiPMr4ZUck/08h4v9qWGcCJnT5A
lpc_rms=-21.40
offset=3877
pitch_keycenter=e5
sample=Flute_tremolo_FF_E5.opus
</region>

<region>
hikey=e6
hivel=127
lokey=d#6
loop_end=274147
loop_mode=loop_continuous
loop_start=103964
loop_xfade=20621
lovel=1
lpc=j262QS98vMHVsz1A6tSJQFG+UT6mxkBAgQoDwNCbXUCn+q2+CHJIPs4WBEAkiJa/KNiJQFzfS8DiImBAe9uavzrif0AgJRzBSUuuwPvCU0GtP4w/UQp5wJ1lEb9RtLQ8
lpc_rms=-13.25
offset=3889
pitch_keycenter=e6
sample=Flute_tremolo_FF_E6.opus
</region>

<region>
hikey=f#4
hivel=127
lokey=f4
loop_end=275593
loop_mode=loop_continuous
loop_start=104513
loop_xfade=20730
lovel=1
lpc=MC2XQVy7JcL7wNVBRe96wOOk8z8OoLA/vRBHwFLzO8DjaHdAXSZFwJeXbkCEowrA59xDQDkMvcCfdbdAv/97wHC9JkCfWau+eJNbv8V7Rr62ZqE/NPbRvr1qNb+6jq4+
lpc_rms=-20.73
offset=4558
pitch_keycenter=f#4
sample=Flute_tremolo_FF_F#4.opus
</region>

<region>
hikey=f#5
hivel=127
lokey=f5
loop_end=288669
loop_mode=loop_continuous
loop_start=109472
loop_xfade=21713
lovel=1
lpc=kvptQa+Tn8HBUq1Ac/mlQF9QNsDRlUdA8tH0v8fdCb0mlxlAzhvdvdAt0z+C1Z7AlUeFQDeDSr+jNjJADg+Lvztosj45e0Q/HrUJPRvQPr8IjwVAh+/sv0eY1T92+9o/
lpc_rms=-17.36
offset=13814
pitch_keycenter=f#5
sample=Flute_tremolo_FF_F#5.opus
</region>

<region>
hikey=f#6
hivel=127
lokey=f6
loop_end=276107
loop_mode=loop_continuous
loop_start=104708
loop_xfade=20768
lovel=1
lpc=HnazQdG6n8EbXM4/vSAXQEa3HD+Ux1VAr9fIvaw0IUDPgwa9IFT0PzwYET+ciu6/YhSFQK7qKMBO6aVAd/AbwYXM7sAnXCFBwptUQFZwOcBslZy+nKQYwFFFez8yTA3A
lpc_rms=-14.56
offset=1940
pitch_keycenter=f#6
sample=Flute_tremolo_FF_F#6.opus
</region>

<region>
hikey=g#4
hivel=127
lokey=g4
loop_end=275317
loop_mode=loop_continuous
loop_start=104408
loop_xfade=20709
lovel=1
lpc=4gN8QQIjAsLViZhB2zMVwBxDej8q9l1Ac9erwIm9ET/Lsc2+je4gP9fXrD9Wqie/nj3EP0XsScBfDhNA4aZgv2429j6a/iq/dCkOP82fUb93He0/FwI9vmgsOcA9ePw/
lpc_rms=-19.73
offset=3812
pitch_keycenter=g#4
sample=Flute_tremolo_FF_G#4.opus
</region>

<region>
hikey=g#5
hivel=127
lokey=g5
loop_end=273941
loop_mode=loop_continuous
loop_start=103886
loop_xfade=20606
lovel=1
lpc=sk5YQQgvnsFT4BNBrm/6P0x7zL9WDvo/+r70vg+36r7H1yBA/j8mwAZTGEDx3Gw/aXzcP6M7IcBNXHa/VxtwQLtBiz9R2RK/0pvlv460CUCnMGs+bTQkP/snpT824V++
lpc_rms=-17.11
offset=3344
pitch_keycenter=g#5
sample=Flute_tremolo_FF_G#5.opus
</region>

<region>
hikey=g#6
hivel=127
lokey=g6
loop_end=270589
loop_mode=loop_continuous
loop_start=102615
loop_xfade=20353
lovel=1
lpc=WpUHQpFC1sFAZqRAS3+FQNOZvj6KtgxBIZy7Pl2uK0D/RJ1A5gX8PuEhE0AV34M8amofQfeUJ8HtCTTB6ciSQMMzNkHUaEvAnzUZwMYuDMBqgAA/PPA/wPMTNz8c6C69
lpc_rms=-11.12
offset=2031
pitch_keycenter=g#6
sample=Flute_tremolo_FF_G#6.opus
</region>
</group>